<?xml version="1.0" standalone="no"?><!DOCTYPE svg PUBLIC "-//W3C//DTD SVG 1.1//EN" "http://www.w3.org/Graphics/SVG/1.1/DTD/svg11.dtd"><svg t="1576048759317" class="icon" viewBox="0 0 1024 1024" version="1.1" xmlns="http://www.w3.org/2000/svg" p-id="1877" xmlns:xlink="http://www.w3.org/1999/xlink" width="200" height="200"><defs><style type="text/css"></style></defs><path d="M512 512m-372.363636 0a372.363636 372.363636 0 1 0 744.727272 0 372.363636 372.363636 0 1 0-744.727272 0Z" fill="#5BD2F9" p-id="1878"></path><path d="M381.672727 353.745455l139.636364 316.50909-13.963636 9.309091-139.636364-316.509091z" fill="#FFFFFF" p-id="1879"></path><path d="M498.036364 693.527273L349.090909 353.745455l37.236364-13.963637 148.945454 339.781818z" fill="#FFFFFF" p-id="1880"></path><path d="M660.945455 646.981818l-9.309091-4.654545c-41.890909-23.272727-79.127273-37.236364-125.672728-37.236364-41.890909 0-83.781818 9.309091-134.981818 32.581818l-9.309091 4.654546L232.727273 404.945455l9.309091-4.654546c102.4-65.163636 200.145455-97.745455 297.890909-97.745454 93.090909 0 186.181818 32.581818 274.618182 97.745454l4.654545 4.654546-158.254545 242.036363z m-130.327273-55.854545c46.545455 0 88.436364 9.309091 125.672727 32.581818l139.636364-214.109091c-83.781818-60.509091-172.218182-93.090909-260.654546-93.090909-88.436364 0-181.527273 32.581818-279.272727 93.090909l139.636364 209.454545c46.545455-18.618182 93.090909-27.927273 134.981818-27.927272z m0 172.218182c-27.927273 0-51.2-23.272727-51.2-51.2 0-27.927273 23.272727-51.2 51.2-51.2 27.927273 0 51.2 23.272727 51.2 51.2 0 27.927273-23.272727 51.2-51.2 51.2z m0-83.781819c-18.618182 0-32.581818 13.963636-32.581818 32.581819 0 18.618182 13.963636 32.581818 32.581818 32.581818s32.581818-13.963636 32.581818-32.581818c0-13.963636-13.963636-32.581818-32.581818-32.581819z" fill="#FFFFFF" p-id="1881"></path><path d="M530.618182 781.963636c-37.236364 0-69.818182-32.581818-69.818182-69.818181s32.581818-69.818182 69.818182-69.818182 69.818182 32.581818 69.818182 69.818182-32.581818 69.818182-69.818182 69.818181z m0-83.781818c-9.309091 0-13.963636 4.654545-13.963637 13.963637s4.654545 13.963636 13.963637 13.963636 13.963636-4.654545 13.963636-13.963636-4.654545-13.963636-13.963636-13.963637z m139.636363-23.272727l-23.272727-13.963636c-74.472727-41.890909-148.945455-46.545455-242.036363-4.654546l-23.272728 9.309091-176.872727-265.309091 23.272727-13.963636c209.454545-134.981818 409.6-134.981818 595.781818 0l18.618182 13.963636-172.218182 274.618182z m-139.636363-102.4c41.890909 0 83.781818 9.309091 121.018182 27.927273L772.654545 418.909091C619.054545 311.854545 456.145455 311.854545 283.927273 418.909091l121.018182 181.527273c41.890909-18.618182 83.781818-27.927273 125.672727-27.927273z" fill="#FFFFFF" p-id="1882"></path></svg>