<?xml version="1.0" standalone="no"?><!DOCTYPE svg PUBLIC "-//W3C//DTD SVG 1.1//EN" "http://www.w3.org/Graphics/SVG/1.1/DTD/svg11.dtd"><svg t="1576048734327" class="icon" viewBox="0 0 1024 1024" version="1.1" xmlns="http://www.w3.org/2000/svg" p-id="1494" xmlns:xlink="http://www.w3.org/1999/xlink" width="200" height="200"><defs><style type="text/css"></style></defs><path d="M512 512m-372.363636 0a372.363636 372.363636 0 1 0 744.727272 0 372.363636 372.363636 0 1 0-744.727272 0Z" fill="#00A4F9" p-id="1495"></path><path d="M493.381818 377.018182m-51.2 0a51.2 51.2 0 1 0 102.4 0 51.2 51.2 0 1 0-102.4 0Z" fill="#FFFFFF" p-id="1496"></path><path d="M409.6 549.236364m-83.781818 0a83.781818 83.781818 0 1 0 167.563636 0 83.781818 83.781818 0 1 0-167.563636 0Z" fill="#FFFFFF" p-id="1497"></path><path d="M614.4 660.945455m-55.854545 0a55.854545 55.854545 0 1 0 111.70909 0 55.854545 55.854545 0 1 0-111.70909 0Z" fill="#FFFFFF" p-id="1498"></path><path d="M605.090909 679.563636L395.636364 558.545455 465.454545 386.327273l27.927273 13.963636-55.854545 144.290909 186.181818 107.054546z" fill="#FFFFFF" p-id="1499"></path></svg>