<?xml version="1.0" standalone="no"?><!DOCTYPE svg PUBLIC "-//W3C//DTD SVG 1.1//EN" "http://www.w3.org/Graphics/SVG/1.1/DTD/svg11.dtd"><svg t="1576048726968" class="icon" viewBox="0 0 1024 1024" version="1.1" xmlns="http://www.w3.org/2000/svg" p-id="1368" xmlns:xlink="http://www.w3.org/1999/xlink" width="200" height="200"><defs><style type="text/css"></style></defs><path d="M512 512m-372.363636 0a372.363636 372.363636 0 1 0 744.727272 0 372.363636 372.363636 0 1 0-744.727272 0Z" fill="#00A1FF" p-id="1369"></path><path d="M424.029091 480.256a20.712727 20.712727 0 0 1 17.128727-31.744c11.170909 0 20.247273 9.495273 20.247273 21.178182h1.024c4.654545 24.157091 25.134545 42.309818 49.570909 42.309818 24.482909 0 44.869818-18.152727 49.570909-42.356364h1.024c0-11.636364 9.076364-21.131636 20.247273-21.131636a20.712727 20.712727 0 0 1 17.128727 31.744c-9.262545 42.309818-44.730182 74.053818-87.970909 74.053818-43.240727 0-78.708364-31.744-87.970909-74.007273z m239.616 177.710545L689.431273 744.727273h-45.893818l-20.154182-98.304s-0.558545-29.323636 20.154182-28.625455c33.512727 0 60.695273-28.392727 60.695272-63.488 0-21.317818-10.100364-40.029091-25.506909-51.572363-13.544727 56.645818-52.782545 102.260364-103.982545 123.345454L609.792 744.727273h-47.197091l-31.744-119.389091s-7.261091-30.161455 20.340364-35.607273c53.434182-17.361455 92.346182-69.026909 92.346182-130.606545 0-75.962182-58.88-137.541818-131.537455-137.541819-72.610909 0-131.537455 61.579636-131.537455 137.541819 0 62.277818 39.749818 114.362182 94.068364 131.165091 20.061091 6.656 19.083636 33.512727 18.292364 36.165818L461.405091 744.727273h-42.077091l34.443636-116.596364c-53.527273-20.154182-94.254545-67.304727-108.218181-125.672727l-0.279273 0.279273c-15.36 11.496727-25.506909 30.254545-25.506909 51.572363 0 35.048727 27.182545 63.488 60.695272 63.488 20.712727-0.651636 20.154182 28.625455 20.154182 28.625455L380.462545 744.727273h-45.893818l25.786182-86.760728C314.088727 648.192 279.272727 605.556364 279.272727 554.356364c0-43.380364 25.041455-80.570182 60.788364-96.907637C340.992 358.865455 417.559273 279.272727 512 279.272727c94.487273 0 171.054545 79.592727 171.938909 178.129455 35.746909 16.290909 60.788364 53.527273 60.788364 96.907636 0 51.2-34.816 93.928727-81.082182 103.656727z" fill="#FFFFFF" p-id="1370"></path></svg>