<?xml version="1.0" standalone="no"?><!DOCTYPE svg PUBLIC "-//W3C//DTD SVG 1.1//EN" "http://www.w3.org/Graphics/SVG/1.1/DTD/svg11.dtd"><svg t="1576048717831" class="icon" viewBox="0 0 1024 1024" version="1.1" xmlns="http://www.w3.org/2000/svg" p-id="1240" xmlns:xlink="http://www.w3.org/1999/xlink" width="200" height="200"><defs><style type="text/css"></style></defs><path d="M512 512m-372.363636 0a372.363636 372.363636 0 1 0 744.727272 0 372.363636 372.363636 0 1 0-744.727272 0Z" fill="#358EFF" p-id="1241"></path><path d="M512 544.581818c-4.654545 0-9.309091 0-13.963636-4.654545l-176.872728-93.090909c-4.654545-4.654545-9.309091-9.309091-9.309091-18.618182v-23.272727c4.654545 0 4.654545-4.654545 9.309091-9.309091l176.872728-93.090909c9.309091-4.654545 18.618182-4.654545 27.927272 0l176.872728 93.090909c13.963636 9.309091 18.618182 23.272727 9.309091 37.236363 0 4.654545-4.654545 9.309091-9.309091 13.963637l-176.872728 93.090909c-4.654545 0-9.309091 4.654545-13.963636 4.654545zM358.4 418.909091l153.6 83.781818L670.254545 418.909091 512 339.781818 358.4 418.909091z m148.945455-83.781818s4.654545 0 0 0z m9.30909 0z" fill="#FFFFFF" p-id="1242"></path><path d="M512 637.672727c-4.654545 0-9.309091 0-13.963636-4.654545l-176.872728-93.090909c-4.654545-4.654545-9.309091-18.618182-4.654545-27.927273 4.654545-9.309091 13.963636-9.309091 23.272727-4.654545l172.218182 93.090909 172.218182-93.090909c13.963636-4.654545 23.272727-4.654545 27.927273 4.654545 4.654545 9.309091 0 18.618182-9.309091 23.272727l-176.872728 93.090909c-4.654545 4.654545-9.309091 9.309091-13.963636 9.309091z" fill="#FFFFFF" p-id="1243"></path><path d="M512 730.763636c-4.654545 0-9.309091 0-13.963636-4.654545l-176.872728-93.090909c-4.654545-4.654545-9.309091-18.618182-4.654545-27.927273s13.963636-9.309091 23.272727-4.654545l172.218182 93.090909 172.218182-93.090909c13.963636-4.654545 23.272727-4.654545 27.927273 4.654545 4.654545 9.309091 0 18.618182-9.309091 23.272727l-176.872728 93.090909c-4.654545 4.654545-9.309091 9.309091-13.963636 9.309091z" fill="#FFFFFF" p-id="1244"></path></svg>