<?xml version="1.0" standalone="no"?><!DOCTYPE svg PUBLIC "-//W3C//DTD SVG 1.1//EN" "http://www.w3.org/Graphics/SVG/1.1/DTD/svg11.dtd"><svg t="1576048657879" class="icon" viewBox="0 0 1024 1024" version="1.1" xmlns="http://www.w3.org/2000/svg" p-id="1113" xmlns:xlink="http://www.w3.org/1999/xlink" width="200" height="200"><defs><style type="text/css"></style></defs><path d="M512 512m-372.363636 0a372.363636 372.363636 0 1 0 744.727272 0 372.363636 372.363636 0 1 0-744.727272 0Z" fill="#6FB3FA" p-id="1114"></path><path d="M581.818182 553.890909c37.236364-23.272727 65.163636-60.509091 69.818182-102.4h18.618181c9.309091 0 18.618182-4.654545 18.618182-13.963636 0-9.309091-9.309091-13.963636-18.618182-13.963637C670.254545 344.436364 609.745455 279.272727 512 279.272727 414.254545 279.272727 353.745455 344.436364 353.745455 423.563636c-9.309091 0-18.618182 4.654545-18.618182 13.963637 0 9.309091 9.309091 13.963636 18.618182 13.963636H372.363636c4.654545 41.890909 32.581818 79.127273 69.818182 97.745455-79.127273 23.272727-139.636364 88.436364-139.636363 162.909091 0 9.309091 4.654545 13.963636 9.30909 18.618181 9.309091 9.309091 18.618182 13.963636 23.272728 13.963637h349.090909c9.309091 0 18.618182-4.654545 23.272727-9.309091 4.654545-4.654545 9.309091-13.963636 9.309091-18.618182 4.654545-74.472727-51.2-139.636364-134.981818-162.909091zM465.454545 311.854545c4.654545-4.654545 27.927273-9.309091 46.545455-9.30909s27.927273 0 37.236364 4.654545c9.309091 0 18.618182 4.654545 27.927272 9.309091s18.618182 13.963636 23.272728 23.272727 32.581818 51.2 32.581818 83.781818H390.981818c0-37.236364 23.272727-74.472727 41.890909-88.436363s27.927273-18.618182 32.581818-23.272728z m-125.672727 404.945455c0-60.509091 46.545455-116.363636 116.363637-134.981818 9.309091-4.654545 18.618182-13.963636 18.618181-27.927273 0-9.309091-4.654545-23.272727-13.963636-27.927273-27.927273-13.963636-46.545455-41.890909-51.2-74.472727h204.8c-4.654545 32.581818-23.272727 60.509091-51.2 74.472727-9.309091 9.309091-13.963636 18.618182-13.963636 27.927273 0 9.309091 9.309091 18.618182 23.272727 23.272727 69.818182 18.618182 116.363636 74.472727 116.363636 134.981819l-349.090909 4.654545z" fill="#FFFFFF" p-id="1115"></path><path d="M688.872727 749.381818H335.127273c-9.309091 0-18.618182-4.654545-23.272728-9.309091-9.309091-4.654545-13.963636-13.963636-13.963636-23.272727 0-74.472727 51.2-139.636364 130.327273-167.563636-32.581818-18.618182-55.854545-55.854545-60.509091-93.090909h-13.963636c-13.963636 0-23.272727-9.309091-23.272728-18.618182s9.309091-18.618182 18.618182-18.618182C353.745455 335.127273 418.909091 274.618182 512 274.618182s158.254545 60.509091 162.909091 144.290909c9.309091 0 18.618182 9.309091 18.618182 18.618182s-9.309091 18.618182-23.272728 18.618182h-13.963636c-4.654545 37.236364-27.927273 74.472727-60.509091 93.090909 79.127273 27.927273 130.327273 93.090909 130.327273 167.563636 0 9.309091-4.654545 18.618182-13.963636 23.272727-4.654545 4.654545-13.963636 9.309091-23.272728 9.309091zM353.745455 428.218182c-9.309091 0-13.963636 4.654545-13.963637 9.309091s4.654545 9.309091 13.963637 9.309091h23.272727v4.654545c4.654545 37.236364 27.927273 74.472727 65.163636 93.090909l9.309091 4.654546-9.309091 4.654545c-79.127273 27.927273-134.981818 88.436364-134.981818 162.909091 0 4.654545 4.654545 13.963636 9.309091 18.618182 4.654545 4.654545 13.963636 9.309091 23.272727 9.309091h349.090909c9.309091 0 13.963636-4.654545 23.272728-9.309091 4.654545-4.654545 9.309091-9.309091 9.30909-18.618182 0-69.818182-55.854545-134.981818-134.981818-158.254545l-13.963636-4.654546 9.309091-4.654545c37.236364-18.618182 60.509091-55.854545 65.163636-93.090909v-4.654546h23.272727c9.309091 0 13.963636-4.654545 13.963637-9.309091s-9.309091-13.963636-13.963637-13.963636h-4.654545v-4.654546c0-83.781818-60.509091-139.636364-153.6-139.636363-88.436364 0-153.6 55.854545-153.6 139.636363v4.654546h-4.654545z m339.781818 293.236363H335.127273v-4.654545c0-65.163636 46.545455-121.018182 116.363636-139.636364 9.309091-4.654545 18.618182-9.309091 18.618182-18.618181s-4.654545-18.618182-13.963636-23.272728c-27.927273-18.618182-46.545455-46.545455-51.2-79.127272v-4.654546h218.763636v4.654546c-9.309091 32.581818-27.927273 60.509091-55.854546 74.472727-9.309091 4.654545-13.963636 13.963636-13.963636 23.272727s9.309091 18.618182 18.618182 18.618182c69.818182 23.272727 121.018182 79.127273 121.018182 148.945454z m-349.090909-9.30909h339.781818c0-55.854545-46.545455-107.054545-111.709091-125.672728-18.618182-9.309091-27.927273-18.618182-27.927273-32.581818 0-13.963636 4.654545-23.272727 18.618182-32.581818 23.272727-13.963636 41.890909-37.236364 46.545455-65.163636H414.254545c4.654545 27.927273 23.272727 51.2 46.545455 65.163636 13.963636 4.654545 18.618182 18.618182 18.618182 32.581818 0 13.963636-9.309091 23.272727-27.927273 27.927273-60.509091 23.272727-107.054545 74.472727-107.054545 130.327273z m293.236363-283.927273H386.327273v-4.654546c0-37.236364 23.272727-79.127273 41.890909-93.090909 18.618182-13.963636 27.927273-18.618182 32.581818-23.272727 4.654545-4.654545 32.581818-9.309091 46.545455-9.309091 18.618182 0 32.581818 0 37.236363 4.654546 9.309091 4.654545 23.272727 9.309091 27.927273 9.30909 13.963636 4.654545 18.618182 13.963636 32.581818 23.272728 9.309091 9.309091 37.236364 51.2 37.236364 88.436363v4.654546zM395.636364 418.909091h232.727272c0-32.581818-23.272727-69.818182-32.581818-79.127273-9.309091-9.309091-18.618182-13.963636-23.272727-18.618182-4.654545 0-13.963636-4.654545-23.272727-9.309091H512c-18.618182 0-41.890909 4.654545-46.545455 4.654546-4.654545 4.654545-18.618182 9.309091-32.581818 23.272727-13.963636 13.963636-37.236364 46.545455-37.236363 79.127273z" fill="#FFFFFF" p-id="1116"></path></svg>