<?xml version="1.0" standalone="no"?><!DOCTYPE svg PUBLIC "-//W3C//DTD SVG 1.1//EN" "http://www.w3.org/Graphics/SVG/1.1/DTD/svg11.dtd"><svg t="1576048751520" class="icon" viewBox="0 0 1024 1024" version="1.1" xmlns="http://www.w3.org/2000/svg" p-id="1750" xmlns:xlink="http://www.w3.org/1999/xlink" width="200" height="200"><defs><style type="text/css"></style></defs><path d="M512 512m-372.363636 0a372.363636 372.363636 0 1 0 744.727272 0 372.363636 372.363636 0 1 0-744.727272 0Z" fill="#41C3F5" p-id="1751"></path><path d="M646.981818 404.945455m-102.4 0a102.4 102.4 0 1 0 204.8 0 102.4 102.4 0 1 0-204.8 0Z" fill="#FFFFFF" p-id="1752"></path><path d="M600.436364 735.418182H386.327273c-37.236364 0-69.818182-32.581818-69.818182-69.818182V451.490909c0-37.236364 32.581818-69.818182 69.818182-69.818182h214.109091c37.236364 0 69.818182 32.581818 69.818181 69.818182v214.109091c0 37.236364-32.581818 69.818182-69.818181 69.818182zM386.327273 428.218182c-13.963636 0-23.272727 13.963636-23.272728 23.272727v214.109091c0 13.963636 9.309091 23.272727 23.272728 23.272727h214.109091c13.963636 0 23.272727-9.309091 23.272727-23.272727V451.490909c0-13.963636-9.309091-23.272727-23.272727-23.272727H386.327273z" fill="#FFFFFF" p-id="1753"></path></svg>