<?xml version="1.0" standalone="no"?><!DOCTYPE svg PUBLIC "-//W3C//DTD SVG 1.1//EN" "http://www.w3.org/Graphics/SVG/1.1/DTD/svg11.dtd"><svg t="1576048742747" class="icon" viewBox="0 0 1024 1024" version="1.1" xmlns="http://www.w3.org/2000/svg" p-id="1623" xmlns:xlink="http://www.w3.org/1999/xlink" width="200" height="200"><defs><style type="text/css"></style></defs><path d="M512 512m-372.363636 0a372.363636 372.363636 0 1 0 744.727272 0 372.363636 372.363636 0 1 0-744.727272 0Z" fill="#42B6F4" p-id="1624"></path><path d="M418.909091 744.727273c-18.618182 0-37.236364-4.654545-51.2-18.618182-18.618182-13.963636-32.581818-37.236364-41.890909-69.818182-4.654545-27.927273 0-55.854545 13.963636-83.781818l130.327273-232.727273c18.618182-32.581818 46.545455-55.854545 79.127273-60.509091 32.581818-9.309091 65.163636 0 93.090909 18.618182 27.927273 23.272727 46.545455 51.2 51.2 88.436364 4.654545 37.236364 0 74.472727-18.618182 107.054545l-97.745455 186.181818c-4.654545 9.309091-18.618182 13.963636-27.927272 9.309091-4.654545-9.309091-9.309091-23.272727-4.654546-32.581818l102.4-181.527273c13.963636-23.272727 18.618182-51.2 13.963637-74.472727-4.654545-23.272727-18.618182-46.545455-37.236364-60.509091-18.618182-13.963636-41.890909-23.272727-65.163636-13.963636-23.272727 4.654545-41.890909 18.618182-55.854546 41.890909l-130.327273 232.727273c-9.309091 13.963636-13.963636 32.581818-9.309091 51.2 4.654545 18.618182 13.963636 32.581818 23.272728 41.890909 27.927273 18.618182 60.509091 9.309091 79.127272-23.272728l116.363637-204.8c4.654545-4.654545 4.654545-13.963636 4.654545-23.272727s-4.654545-13.963636-13.963636-18.618182c-9.309091-9.309091-27.927273-4.654545-32.581818 9.309091l-88.436364 153.6c-4.654545 9.309091-13.963636 13.963636-23.272727 4.654546-9.309091-4.654545-13.963636-18.618182-4.654546-27.927273l83.781819-153.6c18.618182-32.581818 60.509091-41.890909 88.436363-23.272727 13.963636 9.309091 23.272727 27.927273 27.927273 46.545454 4.654545 18.618182 0 37.236364-9.309091 55.854546L498.036364 698.181818c-13.963636 23.272727-32.581818 41.890909-60.509091 46.545455H418.909091z" fill="#FFFFFF" p-id="1625"></path><path d="M418.909091 744.727273c-18.618182 0-37.236364-4.654545-51.2-18.618182-23.272727-13.963636-37.236364-37.236364-41.890909-69.818182-4.654545-27.927273 0-60.509091 13.963636-83.781818l130.327273-232.727273c18.618182-32.581818 46.545455-55.854545 79.127273-60.509091 32.581818-9.309091 65.163636 0 93.090909 23.272728 27.927273 23.272727 46.545455 55.854545 55.854545 93.090909s0 79.127273-18.618182 107.054545l-102.4 181.527273c0 4.654545-4.654545 9.309091-13.963636 9.309091-4.654545 0-9.309091 0-13.963636-4.654546-9.309091-4.654545-9.309091-23.272727-4.654546-32.581818l102.4-181.527273c13.963636-23.272727 18.618182-46.545455 13.963637-74.472727-9.309091-23.272727-18.618182-46.545455-41.89091-60.509091-18.618182-13.963636-37.236364-18.618182-60.50909-13.963636-23.272727 4.654545-41.890909 18.618182-55.854546 41.890909l-130.327273 232.727273c-9.309091 13.963636-9.309091 32.581818-9.309091 46.545454 4.654545 18.618182 9.309091 32.581818 23.272728 41.890909 13.963636 9.309091 27.927273 13.963636 41.890909 9.309091 13.963636 0 27.927273-13.963636 37.236363-27.927273l116.363637-204.8c4.654545-4.654545 4.654545-13.963636 4.654545-23.272727s-4.654545-13.963636-9.309091-18.618182c-9.309091 0-13.963636-4.654545-23.272727 0-4.654545 0-13.963636 4.654545-13.963636 13.963637l-83.781818 148.945454c-4.654545 4.654545-9.309091 9.309091-13.963637 9.309091-4.654545 0-9.309091 0-13.963636-4.654545-13.963636-4.654545-13.963636-18.618182-9.309091-27.927273l83.781818-153.6c9.309091-18.618182 23.272727-27.927273 41.890909-32.581818 18.618182-4.654545 32.581818 0 46.545455 9.309091 13.963636 9.309091 23.272727 27.927273 27.927272 46.545454 4.654545 18.618182 0 41.890909-9.30909 55.854546L498.036364 698.181818c-13.963636 23.272727-32.581818 41.890909-60.509091 46.545455H418.909091z m158.254545-460.8c-9.309091 0-18.618182 0-23.272727 4.654545-32.581818 4.654545-60.509091 23.272727-79.127273 55.854546l-130.327272 232.727272c-13.963636 23.272727-18.618182 51.2-13.963637 79.127273 4.654545 27.927273 18.618182 51.2 37.236364 65.163636 18.618182 13.963636 32.581818 23.272727 51.2 23.272728h18.618182c23.272727-4.654545 41.890909-23.272727 55.854545-46.545455l116.363637-204.8c9.309091-13.963636 13.963636-37.236364 9.30909-55.854545-4.654545-18.618182-13.963636-37.236364-27.927272-46.545455-9.309091-9.309091-27.927273-13.963636-41.890909-9.309091-13.963636 0-32.581818 13.963636-41.890909 27.927273l-83.781819 153.6c-4.654545 9.309091-4.654545 23.272727 4.654546 27.927273 4.654545 4.654545 9.309091 4.654545 9.309091 4.654545 4.654545 0 9.309091-4.654545 9.309091-9.309091l83.781818-153.6c9.309091-9.309091 18.618182-13.963636 23.272727-13.963636 9.309091 0 13.963636 0 23.272727 4.654545 4.654545 4.654545 9.309091 13.963636 13.963637 23.272728 0 9.309091 0 18.618182-4.654546 23.272727l-116.363636 204.8c-9.309091 13.963636-23.272727 23.272727-41.890909 27.927273-13.963636 4.654545-27.927273 0-41.890909-9.309091-13.963636-9.309091-23.272727-27.927273-23.272728-41.890909-4.654545-18.618182 0-37.236364 9.309091-51.2l130.327273-232.727273c9.309091-23.272727 32.581818-41.890909 55.854546-46.545455 23.272727-4.654545 46.545455 0 65.163636 13.963637 18.618182 13.963636 32.581818 37.236364 37.236364 65.163636 4.654545 27.927273 0 55.854545-13.963637 79.127273l-97.745454 181.527273c-4.654545 4.654545-4.654545 18.618182 4.654545 23.272727 0 4.654545 4.654545 4.654545 9.309091 4.654545s9.309091-4.654545 9.309091-9.309091l102.4-181.527272c18.618182-27.927273 23.272727-65.163636 18.618182-102.4-4.654545-37.236364-23.272727-69.818182-51.2-93.090909-23.272727-13.963636-41.890909-18.618182-65.163637-18.618182z" fill="#FFFFFF" p-id="1626"></path></svg>